<?xml version="1.0" encoding="UTF-8"?>
<svg id="Camada_1" data-name="Camada 1" xmlns="http://www.w3.org/2000/svg" viewBox="0 0 744.71 289.73">
  <defs>
    <style>
      .cls-1 {
        fill: #e0040b;
      }

      .cls-1, .cls-2 {
        stroke-width: 0px;
      }

      .cls-2 {
        fill: #fff;
      }
    </style>
  </defs>
  <path class="cls-2" d="M699.81,196.28v-110.64h21.95v110.64h-21.95ZM330.62,196.33v-102.91h38.39c18.02,0,37.64,3.78,37.64,26.16,0,11.49-7.11,19.34-17.72,22.68,13.51,2.04,22.53,12.06,22.53,25.44,0,21.5-20.35,28.63-38.67,28.63h-42.16ZM370.45,153.75h-11.76c-.68-12.6,2.43-18.5,11.04-19.19,6.95-.56,14.24-2.91,14.24-11.2s-8.15-10.75-15.26-10.75h-15.41l-.03,18.25v33.38l.03,12.91h20.35c7.13,0,15.11-3.05,15.11-12.06,0-9.74-10.9-11.34-18.31-11.34ZM422.52,196.32v-71.13h21.95v11.42c4.98-8.64,11.14-13.17,20.78-13.17,2.5,0,5.28.14,7.33.73v20.06c-3.09-.88-6.16-1.47-9.37-1.47-16.69,0-18.74,9.66-18.74,23.86v29.71h-21.95ZM521.18,196.32v-8.92c-5.14,7.6-13.92,10.67-22.84,10.67-13.31,0-25.31-7.62-25.31-21.95,0-24.59,29.84-25.02,48.15-25.02,0-7.76-6.44-12.73-14.06-12.73-7.16,0-13.17,3.21-17.86,8.49l-11.69-12c8.05-7.61,19.76-11.41,31.31-11.41,25.63,0,32.5,13.02,32.5,36.74v36.15h-20.19ZM521.18,165.15h-5.42c-6.73,0-21.67.59-21.67,10.24,0,5.26,5.57,7.75,10.39,7.75,8.65,0,16.7-4.53,16.7-13.31v-4.68ZM609.54,132.8l-13.46,13.32c-3.23-3.95-7.48-6-12.74-6-3.64,0-8.03,1.61-8.03,5.86,0,10.54,37.02,1.6,37.02,28.69,0,18.15-17.56,23.41-32.79,23.41-9.96,0-20.92-2.48-27.95-9.65l13.33-14.79c4.09,4.99,8.92,7.77,15.49,7.77,4.98,0,9.96-1.32,9.96-5.12,0-11.43-37.02-1.77-37.02-28.84,0-16.68,14.92-24,29.84-24,9.37,0,19.77,2.34,26.34,9.36ZM666.28,196.32v-8.92c-5.12,7.6-13.9,10.67-22.83,10.67-13.31,0-25.33-7.62-25.33-21.95,0-24.59,29.86-25.02,48.15-25.02,0-7.76-6.44-12.73-14.05-12.73-7.19,0-13.17,3.21-17.86,8.49l-11.71-12c8.07-7.61,19.76-11.41,31.32-11.41,25.63,0,32.5,13.02,32.5,36.74v36.15h-20.2ZM666.28,165.15h-5.42c-6.71,0-21.65.59-21.65,10.24,0,5.26,5.57,7.75,10.4,7.75,8.62,0,16.67-4.53,16.67-13.31v-4.68Z"/>
  <path class="cls-1" d="M288.94,155.8c-5.58,74.9-68.13,133.93-144.47,133.93S5.59,230.71,0,155.8h46.61c5.46,49.22,47.18,87.51,97.86,87.51s92.4-38.28,97.84-87.51h46.63ZM.03,133.55C5.8,58.83,68.25,0,144.47,0s138.66,58.83,144.44,133.55h-46.64c-5.62-49.04-47.25-87.11-97.79-87.11s-92.2,38.08-97.81,87.11H.03Z"/>
</svg>